<svg width="124" height="114" viewBox="0 0 124 114" fill="none" xmlns="http://www.w3.org/2000/svg">
<path fill-rule="evenodd" clip-rule="evenodd" d="M39.1154 48.6652C46.9098 44.1564 52.1539 35.7291 52.1539 26.0769C52.1539 16.4248 46.9098 7.99745 39.1154 3.48862C42.9509 1.26987 47.4041 0 52.1538 0C66.5557 0 78.2308 11.675 78.2308 26.0769C78.2308 40.4788 66.5557 52.1539 52.1538 52.1539C47.4041 52.1539 42.9509 50.884 39.1154 48.6652ZM13.9077 49.1461V31.2916H0.521488C0.179516 29.6067 0 27.8628 0 26.0769C0 11.675 11.675 0 26.0769 0C30.8267 0 35.2798 1.26987 39.1154 3.48862C31.321 7.99745 26.0769 16.4248 26.0769 26.0769C26.0769 35.7291 31.321 44.1564 39.1154 48.6652C35.2798 50.884 30.8267 52.1539 26.0769 52.1539C21.6818 52.1539 17.5406 51.0665 13.9077 49.1461ZM0.521488 31.2916C2.09572 39.0479 7.11255 45.5542 13.9077 49.1461V112.999H0V31.2916H0.521488ZM22.2551 112.551C23.282 113.078 24.517 113.342 25.9603 113.342V109.387C25.2664 109.387 24.6697 109.303 24.1701 109.137C23.6983 108.97 23.3375 108.721 23.0877 108.388C22.8657 108.055 22.7546 107.624 22.7546 107.097V106.181C22.7546 105.598 22.9212 105.196 23.2542 104.974C23.504 104.807 23.9342 104.641 24.5448 104.474C25.1554 104.28 25.8631 104.1 26.668 103.933C27.4729 103.739 28.2361 103.531 28.9577 103.309C29.7071 103.059 30.3455 102.781 30.8728 102.476V106.764C30.8728 107.291 30.7479 107.763 30.4981 108.179C30.2761 108.568 29.9569 108.873 29.5406 109.095C29.1243 109.29 28.6386 109.387 28.0835 109.387V113.342C28.9439 113.342 29.7626 113.231 30.5397 113.009C31.3169 112.759 31.9691 112.398 32.4964 111.926C32.9127 112.343 33.3984 112.689 33.9535 112.967C34.5364 113.217 35.258 113.342 36.1184 113.342V109.345C35.6188 109.345 35.2996 109.165 35.1609 108.804C35.0498 108.415 34.9943 108.138 34.9943 107.971V96.7307C34.9943 95.8703 34.7307 94.9406 34.2033 93.9414C33.7037 92.9145 32.9405 92.0541 31.9136 91.3602C30.9144 90.6664 29.6238 90.3195 28.0418 90.3195V94.2328C28.5692 94.2328 29.041 94.3438 29.4573 94.5659C29.8736 94.7879 30.2067 95.1071 30.4565 95.5234C30.734 95.9397 30.8728 96.4254 30.8728 96.9805V97.8548C30.8728 98.1878 30.6091 98.507 30.0818 98.8123C29.5822 99.1176 28.93 99.409 28.1251 99.6866C27.3202 99.9641 26.4737 100.228 25.5856 100.478C24.7252 100.727 23.8926 100.977 23.0877 101.227C22.3106 101.477 21.7 101.713 21.2559 101.935C20.562 102.295 20.0625 102.74 19.7572 103.267C19.4796 103.766 19.2992 104.252 19.216 104.724C19.1327 105.196 19.0911 105.598 19.0911 105.931V108.013C19.0911 108.846 19.3547 109.678 19.8821 110.511C20.4371 111.316 21.2281 111.996 22.2551 112.551ZM19.3825 96.1062L23.1293 97.5217C23.1293 96.8001 23.2542 96.2034 23.504 95.7316C23.7538 95.2597 24.0868 94.8989 24.5032 94.6491C24.9472 94.3993 25.4329 94.2745 25.9603 94.2745V90.3195C24.9056 90.3195 23.8648 90.5831 22.8379 91.1105C21.8387 91.61 21.0061 92.29 20.34 93.1504C19.7017 94.0108 19.3825 94.9961 19.3825 96.1062ZM43.6017 94.8573C43.2686 95.7177 43.1021 96.6336 43.1021 97.605V113.342H47.3485V97.8131C47.3485 97.1748 47.4873 96.6058 47.7648 96.1062C48.0424 95.6067 48.4032 95.2181 48.8472 94.9406C49.3191 94.6353 49.8325 94.4826 50.3876 94.4826V90.3195C49.2774 90.3195 48.2644 90.5137 47.3485 90.9023C46.4604 91.2909 45.6971 91.8321 45.0588 92.5259C44.4204 93.192 43.9347 93.9692 43.6017 94.8573ZM55.092 96.2728C55.314 96.7723 55.425 97.2858 55.425 97.8131V113.342H59.6714V97.605C59.6714 96.6613 59.5049 95.7593 59.1719 94.8989C58.8388 94.0108 58.3531 93.2198 57.7148 92.5259C57.0764 91.8321 56.2993 91.2909 55.3834 90.9023C54.4953 90.5137 53.4961 90.3195 52.3859 90.3195V94.4826C53.0243 94.4826 53.5794 94.6491 54.0512 94.9822C54.523 95.3152 54.8699 95.7454 55.092 96.2728ZM71.1039 112.676C72.0198 113.12 73.0744 113.342 74.2679 113.342V109.387C73.6573 109.387 73.1299 109.262 72.6859 109.012C72.2418 108.734 71.9087 108.415 71.6867 108.055C71.4647 107.694 71.3537 107.375 71.3537 107.097V103.558H83.5101V96.4809C83.5101 95.2875 83.1354 94.2328 82.386 93.3169C81.6644 92.401 80.7485 91.6794 79.6383 91.1521C78.5559 90.6247 77.4596 90.3611 76.3494 90.3611V94.3577C76.849 94.3577 77.3347 94.4549 77.8066 94.6491C78.3061 94.8434 78.7086 95.1348 79.0139 95.5234C79.3469 95.8842 79.5135 96.356 79.5135 96.9389V99.4368H71.3537V96.8972C71.3537 96.5642 71.4786 96.2034 71.7283 95.8148C71.9781 95.4263 72.3112 95.0932 72.7275 94.8157C73.1438 94.5381 73.6434 94.3993 74.2262 94.3993V90.3611C73.0606 90.3611 72.0336 90.5831 71.1455 91.0272C70.2574 91.4435 69.508 91.9847 68.8974 92.6508C68.2868 93.3169 67.8288 93.9969 67.5236 94.6908C67.2183 95.3846 67.0656 95.9952 67.0656 96.5226V107.097C67.0656 107.624 67.2183 108.249 67.5236 108.97C67.8288 109.664 68.2729 110.344 68.8558 111.01C69.4664 111.676 70.2157 112.232 71.1039 112.676ZM76.3494 109.387V113.342C77.6539 113.342 78.8057 113.092 79.8049 112.592C80.804 112.065 81.6228 111.399 82.2611 110.594C82.9272 109.761 83.3574 108.901 83.5517 108.013L80.013 106.681C79.902 107.097 79.6939 107.513 79.3886 107.93C79.0833 108.346 78.6808 108.693 78.1812 108.97C77.6817 109.248 77.0711 109.387 76.3494 109.387ZM95.4431 112.426C96.4422 113.036 97.8438 113.342 99.6479 113.342H101.563L100.564 108.97H99.7727C98.6903 108.97 97.9687 108.707 97.6079 108.179C97.2748 107.624 97.1083 106.986 97.1083 106.264V94.6908H99.8144V90.5276H97.1083V83.7417H92.8203V90.5276H89.9893V94.6491H92.8203V105.89C92.8203 107.388 93.0145 108.693 93.4031 109.803C93.7917 110.913 94.4717 111.787 95.4431 112.426ZM115.876 109.512V113.55C117.264 113.55 118.54 113.272 119.706 112.717C120.872 112.134 121.788 111.302 122.454 110.219C123.148 109.137 123.495 107.846 123.495 106.348C123.495 105.404 123.342 104.599 123.037 103.933C122.731 103.239 122.343 102.67 121.871 102.226C121.399 101.782 120.9 101.421 120.372 101.144C119.845 100.866 119.345 100.686 118.874 100.602C117.069 100.158 115.585 99.7698 114.419 99.4368C113.281 99.076 112.421 98.6874 111.838 98.2711C111.283 97.8548 111.005 97.3413 111.005 96.7307C111.005 96.3144 111.116 95.912 111.338 95.5234C111.56 95.1348 111.893 94.8157 112.337 94.5659C112.781 94.3161 113.323 94.1912 113.961 94.1912V90.1946C113.35 90.1946 112.643 90.3056 111.838 90.5276C111.061 90.7496 110.297 91.1243 109.548 91.6517C108.826 92.179 108.216 92.8867 107.716 93.7749C107.244 94.6353 107.009 95.7177 107.009 97.0221C107.009 98.1601 107.231 99.1037 107.675 99.8531C108.119 100.602 108.646 101.199 109.257 101.643C109.867 102.087 110.45 102.42 111.005 102.642C111.838 102.92 112.74 103.184 113.711 103.433C114.683 103.655 115.585 103.891 116.417 104.141C117.278 104.391 117.985 104.71 118.54 105.099C119.096 105.487 119.373 105.987 119.373 106.597C119.373 107.264 119.179 107.819 118.79 108.263C118.402 108.679 117.93 108.998 117.375 109.22C116.847 109.414 116.348 109.512 115.876 109.512ZM109.964 112.592C111.047 113.231 112.407 113.55 114.044 113.55V109.512C113.572 109.484 113.087 109.345 112.587 109.095C112.088 108.846 111.657 108.512 111.297 108.096C110.964 107.652 110.797 107.139 110.797 106.556L106.8 107.305C106.8 108.249 107.064 109.206 107.591 110.178C108.119 111.149 108.91 111.954 109.964 112.592ZM118.457 95.3985C118.901 95.8148 119.123 96.4254 119.123 97.2303L123.078 96.5642C123.078 95.565 122.773 94.5798 122.162 93.6083C121.552 92.6369 120.705 91.8321 119.623 91.1937C118.54 90.5276 117.278 90.1946 115.834 90.1946L115.793 94.1912C116.07 94.1912 116.473 94.2883 117 94.4826C117.555 94.6491 118.041 94.9544 118.457 95.3985Z" fill="black"/>
</svg>
