<svg width="32" height="115" viewBox="0 0 32 115" fill="none" xmlns="http://www.w3.org/2000/svg">
<path d="M7.80695 114.246C7.458 114.595 6.89223 114.595 6.54328 114.246L0.856792 108.56C0.507845 108.211 0.507841 107.645 0.856793 107.296C1.20575 106.947 1.77151 106.947 2.12046 107.296L7.17511 112.351L12.2298 107.296C12.5787 106.947 13.1445 106.947 13.4934 107.296C13.8424 107.645 13.8424 108.211 13.4934 108.56L7.80695 114.246ZM6.98112 2.64388C13.5937 1.17358 18.6312 0.530783 22.3583 0.727199C26.0805 0.923354 28.6847 1.97009 30.1501 4.08049C31.5888 6.15261 31.7498 9.00571 31.2257 12.3689C30.6975 15.7586 29.4377 19.874 27.7893 24.6386C21.1795 43.7451 8.06868 74.0354 8.06866 113.614L6.28157 113.614C6.28158 73.6652 19.5305 43.0455 26.1005 24.0543C27.7471 19.2946 28.9585 15.3113 29.4599 12.0937C29.9655 8.84959 29.7146 6.58672 28.6821 5.09973C27.6762 3.65101 25.7499 2.6955 22.2643 2.51181C18.7837 2.32839 13.9363 2.92815 7.369 4.38837L6.98112 2.64388Z" fill="#404040"/>
</svg>
