<svg width="567" height="411" viewBox="0 0 567 411" fill="none" xmlns="http://www.w3.org/2000/svg">
<path d="M566.06 400.06C566.646 399.475 566.646 398.525 566.06 397.939L556.514 388.393C555.929 387.807 554.979 387.807 554.393 388.393C553.807 388.979 553.807 389.929 554.393 390.514L562.878 399L554.393 407.485C553.807 408.071 553.807 409.021 554.393 409.606C554.979 410.192 555.929 410.192 556.514 409.606L566.06 400.06ZM89.9999 0.499915C54.8927 0.499893 30.9495 6.70868 16.7661 17.8801C2.43071 29.1713 -1.68475 45.3179 2.36882 64.3437C6.40314 83.2792 18.5335 105.204 36.8323 128.539C55.1508 151.899 79.7382 176.783 108.838 201.641C167.038 251.356 243.389 301.055 324.003 338.33C404.602 375.598 489.575 400.5 565 400.5L565 397.5C490.174 397.5 405.648 372.777 325.262 335.607C244.892 298.445 168.774 248.894 110.787 199.36C81.7929 174.592 57.3569 149.851 39.193 126.688C21.0094 103.499 9.19835 82.0019 5.30297 63.7186C1.42685 45.5257 5.3934 30.6566 18.6224 20.2369C32.0035 9.69734 55.1071 3.49989 89.9999 3.49992L89.9999 0.499915Z" fill="#404040"/>
</svg>
