<svg width="37" height="37" viewBox="0 0 37 37" fill="none" xmlns="http://www.w3.org/2000/svg">
<g clip-path="url(#clip0_52_243)">
<path d="M6.48758 19.5336C7.13836 25.6722 12.346 30.4697 18.6551 30.4697C20.3678 30.4716 22.0616 30.1117 23.6256 29.4135C20.8237 28.2642 17.7818 26.7596 14.742 25.0082C11.7717 23.2985 8.90995 21.3962 6.48758 19.5336ZM35.1138 24.039C34.5228 23.2526 33.7233 22.3842 32.7499 21.4664C32.5641 22.2752 32.3082 23.0662 31.9851 23.8304C33.9819 25.8815 34.2934 26.9828 34.2218 27.1991C34.0827 27.3541 33.0363 27.6781 30.1787 26.9536C29.7694 26.8498 29.3217 26.7233 28.8354 26.574C28.5221 26.4776 28.2025 26.3735 27.8766 26.2618C28.3885 25.6747 28.8434 25.0403 29.2352 24.3672C29.247 24.347 29.2595 24.3268 29.2714 24.306C30.333 22.458 30.8918 20.364 30.8921 18.2327C30.8923 17.7914 30.8691 17.3504 30.8225 16.9116C30.1572 10.7813 24.9543 5.99567 18.6551 5.99567C15.9823 5.99416 13.383 6.87092 11.2572 8.49104C9.96878 9.4717 8.88603 10.6964 8.07074 12.0954C8.05962 12.1156 8.0471 12.1357 8.03528 12.1559C7.6478 12.8309 7.32581 13.5415 7.0737 14.2779C6.81459 14.0522 6.56452 13.828 6.32349 13.6056C5.94873 13.2579 5.61639 12.936 5.32089 12.6322C3.26494 10.5282 3.02019 9.46097 3.08486 9.26351C3.23504 9.09455 4.34332 8.80879 7.12655 9.51033C7.62917 8.84837 8.18743 8.23057 8.79523 7.66366C7.48392 7.2736 6.3068 7.01356 5.31533 6.89884C3.17872 6.6541 1.7805 7.07475 1.15822 8.15105C0.93295 8.53902 0.716717 9.20023 0.969105 10.1396C1.34247 11.5343 2.67325 13.2266 4.55677 14.9996C5.1568 15.5649 5.81246 16.1378 6.51191 16.7128C7.02086 17.13 7.55484 17.5513 8.10412 17.9699C8.47076 18.248 8.84506 18.5261 9.227 18.8042C9.60894 19.0823 9.99598 19.3553 10.3881 19.6232C12.1548 20.8476 14.0217 22.0234 15.8524 23.0781C16.5171 23.461 17.1808 23.8318 17.8437 24.1906C18.5065 24.5493 19.164 24.8926 19.8162 25.2203C21.3389 25.9851 22.8302 26.6748 24.2563 27.2665C24.8677 27.5205 25.4658 27.756 26.0508 27.9729C26.8775 28.2802 27.6757 28.5507 28.4363 28.7787L28.5128 28.8017C30.3018 29.3343 31.8098 29.6145 32.996 29.636H33.117C34.6216 29.636 35.6409 29.1924 36.147 28.315C36.779 27.229 36.4307 25.7897 35.1138 24.039Z" fill="black"/>
</g>
<defs>
<clipPath id="clip0_52_243">
<rect width="35.5986" height="35.5986" fill="white" transform="translate(0.855713 0.433411)"/>
</clipPath>
</defs>
</svg>
